<svg width="94" height="94" viewBox="0 0 94 94" fill="none" xmlns="http://www.w3.org/2000/svg">
<g id="Frame 3">
<path id="Rectangle 3" d="M42.4348 57.5444L40.6109 48.5H53.3891L51.5654 57.5434C49.7669 58.1877 48.3738 58.4985 46.9994 58.5C45.6252 58.5015 44.2324 58.1937 42.4348 57.5444Z" fill="#D5D5D5" stroke="#B1B1B1"/>
<g id="Group 4">
<g id="Ellipse 6">
<mask id="path-2-outside-1_111_19" maskUnits="userSpaceOnUse" x="0.955964" y="40.4571" width="43.1151" height="10.5072" fill="black">
<rect fill="white" x="0.955964" y="40.4571" width="43.1151" height="10.5072"/>
<path d="M43.0121 45.9528C42.986 48.1618 33.7873 49.8442 22.4663 49.7104C11.1452 49.5767 1.98886 47.6776 2.01495 45.4686C2.04104 43.2596 11.2397 41.5773 22.5608 41.711C33.8818 41.8447 43.0382 43.7439 43.0121 45.9528ZM9.1946 45.5534C9.17765 46.9887 15.127 48.2226 22.4828 48.3095C29.8387 48.3964 35.8155 47.3033 35.8324 45.868C35.8494 44.4327 29.9001 43.1988 22.5442 43.1119C15.1884 43.025 9.21155 44.1181 9.1946 45.5534Z"/>
</mask>
<path d="M43.0121 45.9528C42.986 48.1618 33.7873 49.8442 22.4663 49.7104C11.1452 49.5767 1.98886 47.6776 2.01495 45.4686C2.04104 43.2596 11.2397 41.5773 22.5608 41.711C33.8818 41.8447 43.0382 43.7439 43.0121 45.9528ZM9.1946 45.5534C9.17765 46.9887 15.127 48.2226 22.4828 48.3095C29.8387 48.3964 35.8155 47.3033 35.8324 45.868C35.8494 44.4327 29.9001 43.1988 22.5442 43.1119C15.1884 43.025 9.21155 44.1181 9.1946 45.5534Z" fill="#D5D5D5"/>
<path d="M43.0121 45.9528C42.986 48.1618 33.7873 49.8442 22.4663 49.7104C11.1452 49.5767 1.98886 47.6776 2.01495 45.4686C2.04104 43.2596 11.2397 41.5773 22.5608 41.711C33.8818 41.8447 43.0382 43.7439 43.0121 45.9528ZM9.1946 45.5534C9.17765 46.9887 15.127 48.2226 22.4828 48.3095C29.8387 48.3964 35.8155 47.3033 35.8324 45.868C35.8494 44.4327 29.9001 43.1988 22.5442 43.1119C15.1884 43.025 9.21155 44.1181 9.1946 45.5534Z" stroke="#B1B1B1" stroke-width="2" mask="url(#path-2-outside-1_111_19)"/>
</g>
<g id="Ellipse 10">
<mask id="path-3-outside-2_111_19" maskUnits="userSpaceOnUse" x="0.932343" y="42.457" width="43.1151" height="10.5072" fill="black">
<rect fill="white" x="0.932343" y="42.457" width="43.1151" height="10.5072"/>
<path d="M42.9885 47.9527C42.9624 50.1617 33.7637 51.844 22.4427 51.7103C11.1216 51.5766 1.96524 49.6774 1.99133 47.4684C2.01742 45.2595 11.2161 43.5771 22.5371 43.7108C33.8582 43.8446 43.0146 45.7437 42.9885 47.9527ZM9.17098 47.5532C9.15403 48.9885 15.1034 50.2225 22.4592 50.3094C29.815 50.3963 35.7919 49.3032 35.8088 47.8679C35.8258 46.4326 29.8764 45.1986 22.5206 45.1117C15.1648 45.0249 9.18793 46.118 9.17098 47.5532Z"/>
</mask>
<path d="M42.9885 47.9527C42.9624 50.1617 33.7637 51.844 22.4427 51.7103C11.1216 51.5766 1.96524 49.6774 1.99133 47.4684C2.01742 45.2595 11.2161 43.5771 22.5371 43.7108C33.8582 43.8446 43.0146 45.7437 42.9885 47.9527ZM9.17098 47.5532C9.15403 48.9885 15.1034 50.2225 22.4592 50.3094C29.815 50.3963 35.7919 49.3032 35.8088 47.8679C35.8258 46.4326 29.8764 45.1986 22.5206 45.1117C15.1648 45.0249 9.18793 46.118 9.17098 47.5532Z" fill="#D5D5D5"/>
<path d="M42.9885 47.9527C42.9624 50.1617 33.7637 51.844 22.4427 51.7103C11.1216 51.5766 1.96524 49.6774 1.99133 47.4684C2.01742 45.2595 11.2161 43.5771 22.5371 43.7108C33.8582 43.8446 43.0146 45.7437 42.9885 47.9527ZM9.17098 47.5532C9.15403 48.9885 15.1034 50.2225 22.4592 50.3094C29.815 50.3963 35.7919 49.3032 35.8088 47.8679C35.8258 46.4326 29.8764 45.1986 22.5206 45.1117C15.1648 45.0249 9.18793 46.118 9.17098 47.5532Z" stroke="#B1B1B1" stroke-width="2" mask="url(#path-3-outside-2_111_19)"/>
</g>
<g id="Ellipse 11">
<mask id="path-4-outside-3_111_19" maskUnits="userSpaceOnUse" x="49.9525" y="41.0359" width="43.1151" height="10.5072" fill="black">
<rect fill="white" x="49.9525" y="41.0359" width="43.1151" height="10.5072"/>
<path d="M92.0087 46.5316C91.9826 48.7406 82.7839 50.4229 71.4629 50.2892C60.1418 50.1555 50.9854 48.2563 51.0115 46.0473C51.0376 43.8383 60.2363 42.156 71.5573 42.2897C82.8784 42.4234 92.0348 44.3226 92.0087 46.5316ZM58.1912 46.1321C58.1742 47.5674 64.1236 48.8014 71.4794 48.8883C78.8352 48.9751 84.8121 47.8821 84.829 46.4468C84.846 45.0115 78.8966 43.7775 71.5408 43.6906C64.185 43.6038 58.2081 44.6968 58.1912 46.1321Z"/>
</mask>
<path d="M92.0087 46.5316C91.9826 48.7406 82.7839 50.4229 71.4629 50.2892C60.1418 50.1555 50.9854 48.2563 51.0115 46.0473C51.0376 43.8383 60.2363 42.156 71.5573 42.2897C82.8784 42.4234 92.0348 44.3226 92.0087 46.5316ZM58.1912 46.1321C58.1742 47.5674 64.1236 48.8014 71.4794 48.8883C78.8352 48.9751 84.8121 47.8821 84.829 46.4468C84.846 45.0115 78.8966 43.7775 71.5408 43.6906C64.185 43.6038 58.2081 44.6968 58.1912 46.1321Z" fill="#D5D5D5"/>
<path d="M92.0087 46.5316C91.9826 48.7406 82.7839 50.4229 71.4629 50.2892C60.1418 50.1555 50.9854 48.2563 51.0115 46.0473C51.0376 43.8383 60.2363 42.156 71.5573 42.2897C82.8784 42.4234 92.0348 44.3226 92.0087 46.5316ZM58.1912 46.1321C58.1742 47.5674 64.1236 48.8014 71.4794 48.8883C78.8352 48.9751 84.8121 47.8821 84.829 46.4468C84.846 45.0115 78.8966 43.7775 71.5408 43.6906C64.185 43.6038 58.2081 44.6968 58.1912 46.1321Z" stroke="#B1B1B1" stroke-width="2" mask="url(#path-4-outside-3_111_19)"/>
</g>
<g id="Ellipse 12">
<mask id="path-5-outside-4_111_19" maskUnits="userSpaceOnUse" x="49.9289" y="43.0357" width="43.1151" height="10.5072" fill="black">
<rect fill="white" x="49.9289" y="43.0357" width="43.1151" height="10.5072"/>
<path d="M91.9851 48.5314C91.959 50.7404 82.7603 52.4227 71.4392 52.289C60.1182 52.1553 50.9618 50.2562 50.9879 48.0472C51.014 45.8382 60.2127 44.1559 71.5337 44.2896C82.8548 44.4233 92.0111 46.3224 91.9851 48.5314ZM58.1676 48.132C58.1506 49.5673 64.1 50.8012 71.4558 50.8881C78.8116 50.975 84.7884 49.8819 84.8054 48.4466C84.8224 47.0113 78.873 45.7774 71.5172 45.6905C64.1613 45.6036 58.1845 46.6967 58.1676 48.132Z"/>
</mask>
<path d="M91.9851 48.5314C91.959 50.7404 82.7603 52.4227 71.4392 52.289C60.1182 52.1553 50.9618 50.2562 50.9879 48.0472C51.014 45.8382 60.2127 44.1559 71.5337 44.2896C82.8548 44.4233 92.0111 46.3224 91.9851 48.5314ZM58.1676 48.132C58.1506 49.5673 64.1 50.8012 71.4558 50.8881C78.8116 50.975 84.7884 49.8819 84.8054 48.4466C84.8224 47.0113 78.873 45.7774 71.5172 45.6905C64.1613 45.6036 58.1845 46.6967 58.1676 48.132Z" fill="#D5D5D5"/>
<path d="M91.9851 48.5314C91.959 50.7404 82.7603 52.4227 71.4392 52.289C60.1182 52.1553 50.9618 50.2562 50.9879 48.0472C51.014 45.8382 60.2127 44.1559 71.5337 44.2896C82.8548 44.4233 92.0111 46.3224 91.9851 48.5314ZM58.1676 48.132C58.1506 49.5673 64.1 50.8012 71.4558 50.8881C78.8116 50.975 84.7884 49.8819 84.8054 48.4466C84.8224 47.0113 78.873 45.7774 71.5172 45.6905C64.1613 45.6036 58.1845 46.6967 58.1676 48.132Z" stroke="#B1B1B1" stroke-width="2" mask="url(#path-5-outside-4_111_19)"/>
</g>
</g>
<g id="Group 3">
<circle id="Ellipse 7" cx="47" cy="47" r="7.5" fill="#D5D5D5" stroke="#B1B1B1"/>
<g id="Rectangle 2" filter="url(#filter0_f_111_19)">
<path d="M41.0001 45.4942C42.5682 42.8862 43.7135 41.9119 46.2182 41L47.5233 42.5154L44.5 44L42.3053 47.0096L41.0001 45.4942Z" fill="white"/>
</g>
</g>
</g>
<defs>
<filter id="filter0_f_111_19" x="40.0001" y="40" width="8.52328" height="8.00961" filterUnits="userSpaceOnUse" color-interpolation-filters="sRGB">
<feFlood flood-opacity="0" result="BackgroundImageFix"/>
<feBlend mode="normal" in="SourceGraphic" in2="BackgroundImageFix" result="shape"/>
<feGaussianBlur stdDeviation="0.5" result="effect1_foregroundBlur_111_19"/>
</filter>
</defs>
</svg>
